<svg width="398" height="276" viewBox="0 0 398 276" fill="none" xmlns="http://www.w3.org/2000/svg">
<path d="M130.991 368.92C61.6577 368.92 5.45115 312.635 5.45115 243.202C5.45115 173.769 61.6577 117.484 130.991 117.484C200.323 117.484 256.53 173.769 256.53 243.202C256.53 312.635 200.323 368.92 130.991 368.92Z" stroke="#E5E5E5"/>
<path d="M144.258 373.902C66.6819 373.902 3.79284 310.925 3.79284 233.237C3.79284 155.549 66.6819 92.5723 144.258 92.5723C221.834 92.5723 284.723 155.549 284.723 233.237C284.723 310.925 221.834 373.902 144.258 373.902Z" stroke="#E5E5E5"/>
<path d="M155.038 378.885C70.1341 378.885 1.3051 309.959 1.30511 224.934C1.30511 139.909 70.1341 70.9834 155.038 70.9834C239.941 70.9834 308.77 139.909 308.77 224.934C308.77 309.959 239.941 378.885 155.038 378.885Z" stroke="#E5E5E5"/>
<path d="M170.793 382.206C79.478 382.206 5.45156 308.076 5.45156 216.63C5.45157 125.184 79.4781 51.0537 170.793 51.0537C262.108 51.0537 336.134 125.184 336.134 216.63C336.134 308.076 262.108 382.206 170.793 382.206Z" stroke="#E5E5E5"/>
<path d="M186.133 385.527C88.6358 385.527 9.5974 306.378 9.5974 208.741C9.59741 111.104 88.6358 31.9551 186.133 31.9551C283.63 31.9551 362.669 111.104 362.669 208.741C362.669 306.378 283.63 385.527 186.133 385.527Z" stroke="#E5E5E5"/>
<path d="M203.546 389.68C96.432 389.68 9.5974 302.723 9.5974 195.456C9.59741 88.1879 96.432 1.23143 203.546 1.23144C310.661 1.23144 397.495 88.1879 397.495 195.456C397.495 302.723 310.661 389.68 203.546 389.68Z" stroke="#E5E5E5"/>
</svg>
