<svg width="483" height="369" viewBox="0 0 483 369" fill="none" xmlns="http://www.w3.org/2000/svg">
<mask id="mask0_1_402" style="mask-type:alpha" maskUnits="userSpaceOnUse" x="0" y="0" width="483" height="361">
<rect x="482.5" y="0.5" width="360" height="482" transform="rotate(90 482.5 0.5)" fill="url(#paint0_linear_1_402)" stroke="#6246E5"/>
</mask>
<g mask="url(#mask0_1_402)">
<path d="M132.991 461.92C63.6577 461.92 7.45115 405.635 7.45115 336.202C7.45115 266.769 63.6577 210.484 132.991 210.484C202.323 210.484 258.53 266.769 258.53 336.202C258.53 405.635 202.323 461.92 132.991 461.92Z" stroke="#E5E5E5"/>
<path d="M146.258 466.902C68.6819 466.902 5.79284 403.925 5.79284 326.237C5.79284 248.549 68.6819 185.572 146.258 185.572C223.834 185.572 286.723 248.549 286.723 326.237C286.723 403.925 223.834 466.902 146.258 466.902Z" stroke="#E5E5E5"/>
<path d="M157.038 471.885C72.1341 471.885 3.3051 402.959 3.30511 317.934C3.30511 232.909 72.1341 163.983 157.038 163.983C241.941 163.983 310.77 232.909 310.77 317.934C310.77 402.959 241.941 471.885 157.038 471.885Z" stroke="#E5E5E5"/>
<path d="M172.793 475.206C81.478 475.206 7.45156 401.076 7.45156 309.63C7.45157 218.184 81.4781 144.054 172.793 144.054C264.108 144.054 338.134 218.184 338.134 309.63C338.134 401.076 264.108 475.206 172.793 475.206Z" stroke="#E5E5E5"/>
<path d="M188.133 478.527C90.6358 478.527 11.5974 399.378 11.5974 301.741C11.5974 204.104 90.6358 124.955 188.133 124.955C285.63 124.955 364.669 204.104 364.669 301.741C364.669 399.378 285.63 478.527 188.133 478.527Z" stroke="#E5E5E5"/>
<path d="M205.546 482.68C98.432 482.68 11.5974 395.723 11.5974 288.456C11.5974 181.188 98.432 94.2314 205.546 94.2314C312.661 94.2314 399.495 181.188 399.495 288.456C399.495 395.723 312.661 482.68 205.546 482.68Z" stroke="#E5E5E5"/>
</g>
<defs>
<linearGradient id="paint0_linear_1_402" x1="739.035" y1="13.5511" x2="488.276" y2="485.801" gradientUnits="userSpaceOnUse">
<stop stop-color="#747DEF"/>
<stop offset="1" stop-color="#5E3BE1"/>
</linearGradient>
</defs>
</svg>
